<svg xmlns="http://www.w3.org/2000/svg" viewBox="0 0 100 100"><defs><style>.cls-1{fill:#2102a3;}</style></defs><title>facebook</title><g id="Layer_2" data-name="Layer 2"><g id="Facebook"><path class="cls-1" d="M50,0a50,50,0,1,0,50,50A50,50,0,0,0,50,0Zm7,36.9c3.5,0,7.2-.1,10.7.1-.1,3.7,0,7.6-.1,11.3H57v35H42v-35c-3.1-.1-6.4,0-9.6-.1V36.8h9.5c.1-3,0-5.7.2-8.1a13,13,0,0,1,2.1-6.1,13.45,13.45,0,0,1,10.7-6c4-.2,8.5.1,12.8.1,0,3.8.1,7.7-.1,11.4-2.1.1-4.3-.2-6.1,0a4.65,4.65,0,0,0-3.9,2.7C56.7,32.5,57,34.6,57,36.9Z"/></g></g></svg>