<svg xmlns="http://www.w3.org/2000/svg" viewBox="0 0 100 100"><defs><style>.cls-1{fill:#fc0000;}.cls-2{fill:#ff0b0b;}</style></defs><title>google</title><g id="Layer_2" data-name="Layer 2"><g id="Layer_1-2" data-name="Layer 1"><path class="cls-1" d="M36.5,56.8c-3.9.3-7.4,1.9-9.1,3.9A7.28,7.28,0,0,0,25.7,65a8,8,0,0,0,.8,3.3c1.5,2.7,5,4.4,8.7,4.6,5,.3,10.4-2,12.1-5.9a6.65,6.65,0,0,0,0-5C45.8,58.6,41.3,56.4,36.5,56.8Z"/><path class="cls-1" d="M40,28.5a6.51,6.51,0,0,0-5.5-2.2c-3.9.5-5.8,4.9-5.1,9.7.5,3.3,2.9,7.2,5.7,8.5a6.22,6.22,0,0,0,3.6.4c3.2-.8,4.9-4.7,4.5-8.7A12.54,12.54,0,0,0,40,28.5Z"/><path class="cls-2" d="M50,0a50,50,0,1,0,50,50A50,50,0,0,0,50,0ZM47.1,26.9a7.32,7.32,0,0,1,2.4,2.8,16,16,0,0,1,.7,5.8c0,5.1-2.8,7.3-5.5,9.7-1.1,1-2.1,1.8-2.1,3s1.3,2.3,2.2,3.1c2.8,2.4,6,4.5,7.4,8.3a10.9,10.9,0,0,1,.5,3.3c0,8.2-5.7,11.9-12.5,13.1-8,1.4-16.2-.2-19.3-5.3a8.33,8.33,0,0,1-1.3-4.2c-.6-9.5,9.2-11.8,18.3-12a3.59,3.59,0,0,0-.7-1.8c-.4-.5-1.1-.7-1.3-1.3-.3-1,.2-2.1,0-3.5-8.7.4-13.7-4.4-13-12.5.6-7.6,6.5-11,14.1-11.8,4.5-.5,10.3.2,15.6-.1C52,26,47.7,24.8,45.9,26A2.37,2.37,0,0,0,47.1,26.9Zm33.2,10H70V47.1a30.09,30.09,0,0,1-3.1.1V36.9H56.6c.1-1-.1-2.2.1-3.1H66.9c.1-3.4-.1-7,.1-10.3h2.9c.2,3.2,0,6.9.1,10.3H80.2A15.82,15.82,0,0,1,80.3,36.9Z"/></g></g></svg>