<svg xmlns="http://www.w3.org/2000/svg" viewBox="0 0 100 100"><defs><style>.cls-1{fill:#f79ac5;}.cls-2{fill:#ff99c7;}</style></defs><title>instagram</title><g id="Layer_2" data-name="Layer 2"><g id="Instagram"><path class="cls-1" d="M49.68,58.4a7.69,7.69,0,1,0-1.23-15.29A7.46,7.46,0,0,0,42,49.19C41,54.41,45.41,58.4,49.68,58.4Z"/><path class="cls-1" d="M69.82,28.2h-6a1.49,1.49,0,0,0-1.51,1.52v6a1.49,1.49,0,0,0,1.51,1.52h6a1.5,1.5,0,0,0,1.52-1.52v-6A1.45,1.45,0,0,0,69.82,28.2Z"/><path class="cls-2" d="M50,0a50,50,0,1,0,50,50A50,50,0,0,0,50,0ZM78.1,65.2c0,3.8-.7,6.7-2.7,9a11.32,11.32,0,0,1-7.6,4c-5.6.4-11.6,0-17.6,0-5.7,0-11.8.4-17.6,0A11.06,11.06,0,0,1,22.1,67.7c-.6-7.8.4-17,0-25.4,0-.2.1-.4.3-.4H38.2c.5.3-.4,1-.7,1.5a14.89,14.89,0,0,0-1.6,8.3A14.11,14.11,0,0,0,61,59.2a14.27,14.27,0,0,0,2.6-13.4,7.5,7.5,0,0,0-1-2,4.55,4.55,0,0,1-.8-1.9H77.9C78.2,50.1,78.1,57.6,78.1,65.2ZM39,50.5a11.31,11.31,0,0,1,3.3-8.2,10.19,10.19,0,0,1,7.1-3,10.84,10.84,0,0,1,11.7,9.5c.6,6.2-3.7,11.7-9.3,12.4a19.3,19.3,0,0,1-3.4,0A10.92,10.92,0,0,1,39,50.5ZM78.1,40.3H64.9a21.56,21.56,0,0,1-4.4,0c-.8-.2-1.2-1-1.9-1.5a14.87,14.87,0,0,0-9.8-2.7A12,12,0,0,0,41.6,39a8.47,8.47,0,0,1-1.9,1.4c-1.2.3-3,0-4.5,0H22.1c.2-3.3-.4-6.5.1-9.3a10.93,10.93,0,0,1,4.6-7V35.8H29s-.2-9,.1-13.1c.3-.3,1-.2,1.4-.5.3,4.2.3,13.6.3,13.6H33V22.3c0-.2,0-.4.1-.4h1.4V35.8h2.3V21.9c9.4.5,21.5-.6,30.7,0a11.37,11.37,0,0,1,8.3,4.2C78.3,29.3,78.2,34,78.1,40.3Z"/></g></g></svg>