<svg xmlns="http://www.w3.org/2000/svg" viewBox="0 0 100 100"><defs><style>.cls-1{fill:#fff;}</style></defs><title>linkedin</title><g id="Layer_2" data-name="Layer 2"><g id="Layer_1-2" data-name="Layer 1"><path class="cls-1" d="M50,0a50,50,0,1,0,50,50A50,50,0,0,0,50,0ZM36,75.3H25.5V41.7c0-.1,0-.2.1-.2H36.1C36,52.7,36,64,36,75.3ZM27.3,35.9a6.58,6.58,0,0,1-2.6-6.1,6.38,6.38,0,0,1,3.2-4.5,3.94,3.94,0,0,1,2-.5,6,6,0,0,1,7,6.1A6.2,6.2,0,0,1,27.3,35.9ZM75.4,75.3H64.9V63.2c0-5.1.7-11-2.8-12.8a7,7,0,0,0-5.5,0c-3.8,1.7-3.5,7.1-3.5,13V75.3H42.6V41.5H52.7v4.6c.4-.3.5-.7.8-1.1a11.31,11.31,0,0,1,9.1-4.4c5.2,0,8.9,1.8,10.8,5.1,2,3.5,2,8.4,2,13.9Z"/></g></g></svg>