<svg xmlns="http://www.w3.org/2000/svg" viewBox="0 0 100 100"><defs><style>.cls-1{fill:#ff5252;}</style></defs><title>pinterest</title><g id="Layer_2" data-name="Layer 2"><g id="Layer_1-2" data-name="Layer 1"><path class="cls-1" d="M50,0a50,50,0,1,0,50,50A50,50,0,0,0,50,0ZM74,50.2a24.85,24.85,0,0,1-5.8,9.5,17.91,17.91,0,0,1-14.3,5.1c-3.8-.3-6.1-2-8.2-4.6-1.3,4.5-1.9,9.2-3.6,13.3a39.59,39.59,0,0,1-4.6,8c-.5.8-1,1.9-2.1,2.1-2.5-10.1,1.1-20.2,3.2-29.1.3-1.1.5-2.3.8-3.5a15.72,15.72,0,0,0,.8-3.3c0-1.1-.7-2.1-.9-3.1-.9-4.7.3-9.5,3.1-11.7a6.89,6.89,0,0,1,6.2-1.2c4.6,1.7,2.9,8.4,1.5,12.9-.8,2.5-2.1,5.6-2.1,8,.1,3.4,3.4,6.3,7.6,5.7A9,9,0,0,0,60.4,56c3.9-3.5,6.7-11.4,6.2-19.3s-6-12.9-13.8-13.5c-12-.9-20.5,6.7-21.2,16.9a12.07,12.07,0,0,0,2.2,8.6,4,4,0,0,1,1,1.7c.1.9-.9,4.9-1.8,5.1-1.9.5-5.2-2.8-5.9-3.9A19.38,19.38,0,0,1,24,40.8a23,23,0,0,1,7.8-17.2c4.5-4.2,10.3-6.5,18.1-6.9,10.9-.6,19.2,4.6,23.2,11.3a20.31,20.31,0,0,1,2.8,8.9A31.11,31.11,0,0,1,74,50.2Z"/></g></g></svg>