<svg xmlns="http://www.w3.org/2000/svg" viewBox="0 0 100 100"><defs><style>.cls-1{fill:#fff;}</style></defs><title>share</title><g id="Layer_2" data-name="Layer 2"><g id="Layer_1-2" data-name="Layer 1"><path class="cls-1" d="M50,0a50,50,0,1,0,50,50A50,50,0,0,0,50,0Zm8.3,69.2C51.5,65.5,44,62.5,37.1,58.9c-6.5,4.4-15,1.2-17.2-4.8-2.8-7.6,2.9-16.5,13-14.8,1.7.3,2.9,1.2,4.5,2.1,6.9-3.4,13.7-6.9,20.9-10,0-7.3,6.1-13.3,14.5-11.1,11.6,3,9.9,22-4,21.4-3-.1-4.4-1-6.9-2.9-6.8,3.3-13.7,6.6-20.4,10-1,3.3,2.3,4.2,4.5,5.3,4.8,2.4,11.1,4.9,15.1,7.4,2.2-.9,3.5-2.2,5.6-2.6,7.2-1.6,13.8,3.3,14,10.3C81.1,83.7,57.7,83.9,58.3,69.2Z"/></g></g></svg>