<svg xmlns="http://www.w3.org/2000/svg" viewBox="0 0 100 100"><defs><style>.cls-1{fill:#ffff7b;}</style></defs><title>snapchat</title><g id="Layer_2" data-name="Layer 2"><g id="Layer_1-2" data-name="Layer 1"><g id="Layer_2-2" data-name="Layer 2"><path class="cls-1" d="M50,0a50,50,0,1,0,50,50A50,50,0,0,0,50,0ZM75.4,73.4c-1.5.2-.2,5.2-2.2,5.1s-8.2-2.4-10.9-.1c-2.4,2.1-5.8,5.4-11.2,6.1a8.07,8.07,0,0,1-2.2,0c-5.4-.7-8.8-4.1-11.2-6.1-2.7-2.3-8.9,0-10.9.1s-.7-4.9-2.2-5.1c-4-.5-12.8-3.4-7.6-5.1A22,22,0,0,0,30.4,56.7c1.7-3.6,1-6-.8-6.8-2-.9-7.6-1.1-6.6-4.8s7.4-.6,7.4-.6A1.35,1.35,0,0,0,32.1,43c0-4.8-2.2-14.5,3.4-21,3.9-4.5,9.5-6,12.4-6.4h.2a9.13,9.13,0,0,1,3.8,0h.2c2.9.5,8.5,1.9,12.4,6.4,5.6,6.5,3.4,16.2,3.4,21,0,2,1.7,1.5,1.7,1.5s6.4-3.2,7.4.6-4.6,3.9-6.6,4.8c-1.8.8-2.5,3.2-.8,6.8A22.31,22.31,0,0,0,83,68.3C88.1,70,79.4,72.9,75.4,73.4Z"/></g></g></g></svg>