<svg xmlns="http://www.w3.org/2000/svg" viewBox="0 0 100 100"><defs><style>.cls-1{fill:#5ab8ff;}</style></defs><title>twitter</title><g id="Layer_2" data-name="Layer 2"><g id="Layer_1-2" data-name="Layer 1"><path class="cls-1" d="M50,0a50,50,0,1,0,50,50A50,50,0,0,0,50,0ZM76.7,36.4A39.78,39.78,0,0,1,71,58.5,37.39,37.39,0,0,1,57.8,71.8a37.76,37.76,0,0,1-21.1,5.4,38.25,38.25,0,0,1-19.3-5.6,3.11,3.11,0,0,1-.9-.7,27.26,27.26,0,0,0,20.3-5.6,12.91,12.91,0,0,1-8.2-3A13.86,13.86,0,0,1,24,55.7a13.42,13.42,0,0,0,6-.2,13.59,13.59,0,0,1-7.6-4.7,12.89,12.89,0,0,1-3.2-9c.1-.2.4.1.6.2a14.81,14.81,0,0,0,5.5,1.4,13.66,13.66,0,0,1-5.8-13.5A14.18,14.18,0,0,1,21.2,25c.9.9,1.7,1.9,2.6,2.8C30,34,38,38.5,49.6,39.4a13.44,13.44,0,0,1,6.6-15A14,14,0,0,1,72.9,27a28.13,28.13,0,0,0,8.7-3.3,13.31,13.31,0,0,1-6,7.5,27.12,27.12,0,0,0,7.8-2.1A27.41,27.41,0,0,1,76.7,36.4Z"/></g></g></svg>