<svg xmlns="http://www.w3.org/2000/svg" viewBox="0 0 100 100"><defs><style>.cls-1{fill:#fff;}.cls-2{fill:#ed0303;}</style></defs><title>youtube</title><g id="Layer_2" data-name="Layer 2"><g id="YouTube"><path class="cls-1" d="M38.4,55.5V51.7H27.1c-.1,0,0,.1,0,.1v3.6c1.3,0,2.7-.1,3.8,0V75.9h3.7c0-6.8-.1-13.8,0-20.6A24.2,24.2,0,0,0,38.4,55.5Z"/><path class="cls-1" d="M44.5,69.7a9.58,9.58,0,0,1,0,1.7,2.7,2.7,0,0,1-2.1,1.4c-1-.1-.7-2.1-.7-3.2V57.9H38.5c-.1,0,0,.1,0,.1V71.3c0,1.6-.1,3.1.5,3.9,1.2,1.8,4,.3,4.9-.6.2-.2.4-.5.7-.6v1.9h3.3v-18H44.6C44.5,61.7,44.5,66,44.5,69.7Z"/><path class="cls-2" d="M46.4,35.6a7.62,7.62,0,0,0,.2,2.7,1.55,1.55,0,0,0,2.5-.3,8.07,8.07,0,0,0,.1-2.7V29.7c0-1,.2-2.2-.1-2.7a1.48,1.48,0,0,0-1.6-.6c-1.4.2-1.1,2-1.1,3.5Z"/><path class="cls-2" d="M50,0a50,50,0,1,0,50,50A50,50,0,0,0,50,0Zm5.4,32.9V23.7a18.19,18.19,0,0,1,3.3,0v6.9c0,2.4-.2,4.9,0,7,.2,1.2,1.1,1.1,1.9.5a2.58,2.58,0,0,0,.9-.9,9.63,9.63,0,0,0,0-1.7V23.8a18.19,18.19,0,0,1,3.3,0V41.5a18.19,18.19,0,0,1-3.3,0V39.7c-.8.9-3.4,3.2-5.2,1.7C54.9,40.1,55.4,35.5,55.4,32.9Zm-8.2-9.7c2.4-.2,4,.7,4.8,2.1s.6,4.9.6,7.1.2,5.7-.5,7.2a5.13,5.13,0,0,1-6.9,1.6,4.53,4.53,0,0,1-2.1-3.6,46.82,46.82,0,0,1,0-5.3c0-2.7-.3-5.4.5-6.9A4.48,4.48,0,0,1,47.2,23.2ZM30.7,17.4c1.1-.1,2.5,0,3.7,0,.8,2.8,1.5,5.7,2.2,8.5A2.1,2.1,0,0,0,37,27c.3-.3.3-.8.4-1.1.7-2.8,1.4-5.8,2.1-8.5h3.7c-1.1,4-2.5,8.2-3.7,12.3a6.07,6.07,0,0,0-.5,1.8A20.85,20.85,0,0,0,39,34v7.5c-1.2,0-2.5.1-3.7,0V36.8a36.84,36.84,0,0,0,0-4.7c-.1-.6-.4-1.2-.5-1.8-1.5-4.4-2.7-8.8-4.1-12.9ZM77,73.9a8.75,8.75,0,0,1-8.8,8.8H31.7a8.75,8.75,0,0,1-8.8-8.8V55a8.75,8.75,0,0,1,8.8-8.8H68.2A8.75,8.75,0,0,1,77,55Z"/><path class="cls-1" d="M60.5,67.4c0-2.1.1-4.2,0-5.6a4.65,4.65,0,0,0-1.3-3.4,3.31,3.31,0,0,0-3.8,0,8.7,8.7,0,0,1-1.1.9V51.7H51c-.1,0,0,.1,0,.1V76h3.3V74.7a4.07,4.07,0,0,0,4.6,1.2A3.55,3.55,0,0,0,60.5,73C60.6,71.4,60.5,69.4,60.5,67.4Zm-3.9,6c-.8.5-1.7-.2-2.2-.7V64.5a12.1,12.1,0,0,1,0-2.7,1.52,1.52,0,0,1,2.1-.6c1.1.6.6,4.4.6,6.1v3.4C57.1,71.7,57.2,73,56.6,73.4Z"/><path class="cls-1" d="M72.7,69.4H69.3c-.1,1.3.3,3.2-.6,3.8a1.73,1.73,0,0,1-1.6.1c-1.4-.6-.5-3.9-.8-5.7h6.3c-.1-2.5.2-4.9-.2-6.9s-2.2-3.3-4.8-3.2A4.74,4.74,0,0,0,63,61.4a70.64,70.64,0,0,0-.1,8.1c0,3,.3,5,2,6.2a5.77,5.77,0,0,0,5.7.1C72.4,74.8,72.8,72.6,72.7,69.4Zm-6-8a1.65,1.65,0,0,1,2.1-.2c.8.6.5,2.2.6,3.4H66.5C66.4,63.4,66.2,62.1,66.7,61.4Z"/></g></g></svg>